<svg width="25" height="25" viewBox="0 0 25 25" fill="none" xmlns="http://www.w3.org/2000/svg">
<path d="M6.75 10.2363V8.23633C6.75 4.92633 7.75 2.23633 12.75 2.23633C17.75 2.23633 18.75 4.92633 18.75 8.23633V10.2363" stroke="#A7A7A7" stroke-width="1.5" stroke-linecap="round" stroke-linejoin="round"/>
<path d="M12.75 18.7363C14.1307 18.7363 15.25 17.617 15.25 16.2363C15.25 14.8556 14.1307 13.7363 12.75 13.7363C11.3693 13.7363 10.25 14.8556 10.25 16.2363C10.25 17.617 11.3693 18.7363 12.75 18.7363Z" stroke="#A7A7A7" stroke-width="1.5" stroke-linecap="round" stroke-linejoin="round"/>
<path d="M17.75 22.2363H7.75C3.75 22.2363 2.75 21.2363 2.75 17.2363V15.2363C2.75 11.2363 3.75 10.2363 7.75 10.2363H17.75C21.75 10.2363 22.75 11.2363 22.75 15.2363V17.2363C22.75 21.2363 21.75 22.2363 17.75 22.2363Z" stroke="#A7A7A7" stroke-width="1.5" stroke-linecap="round" stroke-linejoin="round"/>
</svg>
